<?xml version="1.0" encoding="UTF-8"?>
<svg version="1.1" viewBox="0 0 1304 1248" width="326" height="312" xmlns="http://www.w3.org/2000/svg">
<path transform="translate(660,209)" d="m0 0 5 1 27 15 17 10 26 15 28 16 104 60 28 16 17 10 28 16 24 14 28 16 104 60 28 16 24 14 17 10 2 4-6 9-6 11-30 52-22 38-14 24-15 26-14 24-30 52-14 24-45 78-8 14-9 12-8 8-14 9-12 5-13 3h-19l-14-3-16-8-25-14-17-10-78-45-28-16-24-14-26-15-28-16-130-75-19-11-11-8-9-9-9-14-5-12-3-15v-13l3-14 5-13 10-18 28-48 16-28 28-48 16-28 28-48 16-28 15-26 14-24 15-26 14-24z"/>
<path transform="translate(362,788)" d="m0 0h14l15 3 18 8 24 14 78 45 28 16 17 10 28 16 24 14 28 16 104 60 28 16 20 12 10 9 5 5 6 8 7 14 4 16v20l-4 15-8 17-6 10-14 24-30 52-17 29-2 3h-674l2-5 14-25 15-26 28-48 16-28 16-27 14-25 10-17 15-26 10-17 16-28 11-19 14-24 15-26 12-21 14-24 15-26 9-13 3-4h2v-2l13-10 12-6 13-4z"/>
<path transform="translate(298)" d="m0 0h6v2l25 14 22 13-1 4-11 20-14 24-15 26-14 24-3 7v10l5 8 16 10 28 16 24 14 26 15 19 11 9 1 7-2 7-6 30-52 12-21 11-19 4-7 3-1 17 10 26 15 7 5-2 4-14 25-15 25-6 11-30 52-33 57-14 24-8 14-14 24-16 28-28 48-16 28-28 48-16 28-15 26-12 20-6 11-15 26-14 24-9 15-6 11-15 26-14 24-9 15-6 11-30 52-8 13-6 11-30 52-8 13-6 11-30 52-11 19-14 24-12 21-15 26-11 18-2 1v-216l5 1 21 12 3 2 10 1 8-3 7-8 15-26 16-28 30-52 1-3v-11l-4-8-13-8-26-15-28-16-24-14-21-12v-162h2l2-6 8-13 13-23 28-48 16-28 28-48 16-28 14-24 11-19 14-24 16-28 28-48 16-28 28-48 16-28 28-48 11-19zm-56 232-8 4-6 7-12 21-15 26-14 24-15 26-7 14-1 6 3 8 2 4 10 7 56 32 26 15 21 12 6 2 9-1 8-5 7-10 14-25 14-24 30-52 2-6v-8l-4-8-6-5-24-14-28-16-52-30-10-4zm-128 220-9 5-6 9-30 52-11 19-14 24-6 12-1 9 5 10 14 9 28 16 24 14 26 15 21 12 6 2 9-1 8-5 7-11 30-52 14-24 13-23 3-8-1-9-3-6-9-7-25-14-24-14-28-16-26-15-9-3z"/>
<path transform="translate(1284,568)" d="m0 0 4 1 16 9v80l-6 9-8 14-9 15-2 5v11l3 6 7 6 15 8v107l-11-6-25-14-24-14-10-4h-7l-9 5-13 22-15 26-28 48-9 16-2 6 1 9 4 7 22 13 26 15 24 14 26 15 16 9 9 1 8-3 5-5 11-17h1v119l-8 13-30 52-14 24-15 26-11 18-3 6h-327l1-4 8-14 28-48 16-28 28-48 16-28 15-26 10-17 14-24 16-28 15-26 10-17 15-26 12-21 10-17 14-24 16-28 14-24 45-78 14-24 30-52 14-24 16-28 10-17zm-183 452-9 4-8 11-13 23-28 48-15 26-4 8-1 3v8l4 8 8 6 52 30 24 14 26 15 9 4h7l7-3 5-4 15-26 14-24 16-28 14-24 6-12 1-8-4-10-8-6-26-15-28-16-24-14-28-16-7-2z"/>
</svg>
