<?xml version="1.0" encoding="UTF-8"?>
<svg version="1.1" viewBox="0 0 960 1040" width="1280" height="1280" xmlns="http://www.w3.org/2000/svg">
<path transform="translate(206)" d="m0 0h19l13 8 8 9 4 10 1 4v8l-3 10-6 9-8 7-2 2 8 17 10 19 52 104 10 19 53 106 16-1 214-26 6-2 25-50 10-19 79-158-1-3-8-6-7-11-2-7v-12l4-11 6-8 8-6 11-4h10l9 2 11 7 8 11 3 10v11l-4 10-6 9-10 7-10 3h-10l-5-1-8 19-19 49-19 48-32 82-9 22-1 4 10-2 71-9 12-1h30l21 3 22 6 18 8 15 8 17 12 14 12 9 9 9 11 6 7v3l-8-1-15-2-13-1h-13l-41 4-252 31-220 27-23 3-17 4-20 8-15 9-12 9-10 9-7 7-11 14-10 16-8 16-6 14-6 18-5 22-2 18v39l16 177 12 132 3 25 5 22 7 21 10 21 5 8v2l-7-1-18-7-21-10-14-10-11-9-15-15-10-13-10-15-11-21-7-18-6-23-4-29-28-308v-47l4-25 6-21 6-16 10-21 11-17 8-10 9-10 7-7 10-8 15-10 17-8 15-5 15-3 123-15h5l-14-37-15-38-18-46-19-49-12-30-16-41-10-26-1-2-7 1h-9l-10-3-8-6-6-7-4-8-1-4v-15l4-10 9-10z" fill="#231F20"/>
</svg>
